#!OML:ASF F:\VICON\USERDATA\INSTALL\rory3\rory3.ASF
:FULLY-SPECIFIED
:DEGREES
603
root 4.58846 16.4014 7.03551 10.6051 -2.12717 -4.36743
lowerback 4.51736 -2.01022 1.70266
upperback -3.39602 -2.43514 2.47619
thorax -6.02932 -1.22005 1.85929
lowerneck -6.68435 -12.347 -12.0017
upperneck 10.6558 -16.3334 7.88363
head 5.94434 -8.01641 2.97959
rclavicle 1.3946e-014 1.84373e-014
rhumerus -40.9273 7.27899 -80.024
rradius 60.4159
rwrist 9.47174
rhand -25.5865 -52.5181
rfingers 7.12502
rthumb 0.94516 -82.4958
lclavicle 1.3946e-014 1.84373e-014
lhumerus -40.9503 -18.991 84.6278
lradius 61.5527
lwrist -10.9979
lhand -31.1958 -49.9085
lfingers 7.12502
lthumb -4.47218 -19.9757
rfemur -97.7699 2.41364 18.8225
rtibia 133.299
rfoot -6.3171 -9.33822
rtoes -2.4691
lfemur -33.6378 3.09469 -25.3317
ltibia 50.5109
lfoot -23.2873 6.90794
ltoes -5.38944
604
root 4.57217 16.3186 7.04287 9.60363 -2.65964 -4.21964
lowerback 5.26968 -1.78423 1.35593
upperback -2.96761 -2.15383 2.32075
thorax -6.00583 -1.0689 1.88021
lowerneck -6.28532 -12.414 -12.1839
upperneck 10.2396 -16.5045 8.47436
head 5.83112 -8.08614 3.19797
rclavicle 8.33964e-015 1.73937e-016
rhumerus -41.1655 6.95797 -79.8248
rradius 61.3733
rwrist 7.99254
rhand -26.566 -54.0604
rfingers 7.12502
rthumb -0.000898964 -84.0402
lclavicle 8.33964e-015 1.73937e-016
lhumerus -40.8524 -19.251 83.9597
lradius 62.6874
lwrist -10.4304
lhand -31.2139 -49.4596
lfingers 7.12502
lthumb -4.48969 -19.5272
rfemur -96.5409 3.59044 17.9507
rtibia 132.295
rfoot -6.95649 -9.93456
rtoes -4.71662
lfemur -33.2972 3.80354 -25.4902
ltibia 52.1367
lfoot -24.192 6.53776
ltoes -5.00662
605
root 4.5416 16.2438 7.01753 8.72894 -3.17812 -4.28517
lowerback 6.23461 -1.53218 1.04116
upperback -2.5988 -1.8295 2.23555
thorax -6.16882 -0.896308 1.95755
lowerneck -6.1626 -12.5336 -12.1562
upperneck 10.1841 -16.7322 8.83926
head 5.84695 -8.17947 3.28597
rclavicle 2.78462e-014 -1.47163e-014
rhumerus -41.1739 6.5361 -79.6382
rradius 62.1946
rwrist 7.06813
rhand -26.2595 -55.7693
rfingers 7.12502
rthumb 0.295159 -85.7488
lclavicle 2.78462e-014 -1.47163e-014
lhumerus -40.6017 -19.5361 83.1351
lradius 64.0149
lwrist -9.73424
lhand -31.256 -48.89
lfingers 7.12502
lthumb -4.53032 -18.9584
rfemur -95.9205 4.99232 17.4926
rtibia 131.279
rfoot -6.93296 -10.4497
rtoes -4.66056
lfemur -33.2569 4.55226 -25.3039
ltibia 53.6306
lfoot -24.7029 5.91071
ltoes -4.56819
606
root 4.52699 16.1868 7.01517 7.93352 -3.40111 -4.51518
lowerback 6.77554 -1.40156 1.22082
upperback -2.18927 -1.63914 2.13322
thorax -6.05915 -0.811544 1.73477
lowerneck -6.14384 -12.6384 -12.0026
upperneck 10.3328 -16.9323 9.02586
head 5.91526 -8.26037 3.29445
rclavicle 2.72087e-014 -5.76476e-015
rhumerus -41.1184 6.15737 -79.4683
rradius 62.9357
rwrist 7.03385
rhand -24.4434 -58.5983
rfingers 7.12502
rthumb 2.04909 -88.5682
lclavicle 2.72087e-014 -5.76476e-015
lhumerus -40.2855 -19.8807 82.2002
lradius 65.3787
lwrist -9.28717
lhand -31.314 -48.9724
lfingers 7.12502
lthumb -4.58633 -19.0421
rfemur -94.9448 6.04087 17.1691
rtibia 130.333
rfoot -7.33707 -10.9639
rtoes -3.18478
lfemur -33.0152 5.03339 -24.9535
ltibia 54.902
lfoot -25.0941 5.07103
ltoes -3.17633
607
root 4.50787 16.1406 7.00456 7.48609 -3.77503 -5.01222
lowerback 7.15229 -1.25698 1.54996
upperback -1.94651 -1.40932 2.1445
thorax -6.03114 -0.709919 1.53956
lowerneck -6.03121 -12.6541 -11.8963
upperneck 10.4371 -17.0047 9.15488
head 5.93943 -8.28767 3.31477
rclavicle 3.32467e-014 -7.45443e-015
rhumerus -41.1858 6.11293 -79.3837
rradius 63.648
rwrist 7.31897
rhand -23.3988 -60.1913
rfingers 7.12502
rthumb 3.05801 90.1491
lclavicle 3.32467e-014 -7.45443e-015
lhumerus -39.9549 -20.1881 81.2349
lradius 66.5918
lwrist -8.94915
lhand -31.476 -49.2863
lfingers 7.12502
lthumb -4.74276 -19.3594
rfemur -94.5589 7.40942 17.163
rtibia 129.428
rfoot -7.33998 -11.606
rtoes -2.45813
lfemur -33.1392 5.70903 -24.3152
ltibia 56.0279
lfoot -25.402 4.40057
ltoes -2.29197
608
root 4.47485 16.1059 7.00065 7.1469 -4.49548 -5.12595
lowerback 7.34614 -0.998577 1.23437
upperback -1.77661 -1.09546 2.09714
thorax -5.96143 -0.5446 1.62992
lowerneck -6.14319 -12.6683 -11.7619
upperneck 10.7615 -17.0489 9.12132
head 6.05021 -8.2997 3.26571
rclavicle -1.41386e-014 8.64713e-015
rhumerus -41.143 6.13696 -79.2808
rradius 63.9605
rwrist 8.10688
rhand -23.9762 -58.5699
rfingers 7.12502
rthumb 2.50039 -88.535
lclavicle -1.41386e-014 8.64713e-015
lhumerus -39.7175 -20.5089 80.2724
lradius 67.7001
lwrist -8.53223
lhand -31.7959 -49.5366
lfingers 7.12502
lthumb -5.05162 -19.6168
rfemur -94.6076 8.74315 16.8555
rtibia 128.692
rfoot -7.20578 -12.0666
rtoes -3.50191
lfemur -33.184 6.6152 -24.0794
ltibia 56.7956
lfoot -25.6401 4.45672
ltoes -3.37232
609
root 4.44115 16.093 7.0089 6.92132 -5.05304 -5.25697
lowerback 7.2899 -0.830356 0.958901
upperback -1.56114 -0.905497 2.05698
thorax -5.70203 -0.442874 1.71411
lowerneck -6.73477 -12.7417 -11.5253
upperneck 11.3576 -17.152 9.04286
head 6.32075 -8.31943 3.14393
rclavicle 3.88873e-015 1.45113e-014
rhumerus -40.7013 6.13733 -79.1442
rradius 63.8625
rwrist 9.43061
rhand -24.9252 -55.8046
rfingers 7.12502
rthumb 1.58383 -85.7784
lclavicle 3.88873e-015 1.45113e-014
lhumerus -39.4711 -20.7432 79.1755
lradius 68.8087
lwrist -8.36914
lhand -32.5368 -49.4778
lfingers 7.12502
lthumb -5.76705 -19.5763
rfemur -94.5704 9.79239 16.6168
rtibia 128.037
rfoot -7.14339 -12.3585
rtoes -4.68059
lfemur -33.108 7.30785 -23.7859
ltibia 57.2715
lfoot -25.802 4.4689
ltoes -4.09656
